<?xml version="1.0" encoding="UTF-8" standalone="no"?>
<!-- Created with Inkscape (http://www.inkscape.org/) -->

<svg
   xmlns:dc="http://purl.org/dc/elements/1.1/"
   xmlns:cc="http://creativecommons.org/ns#"
   xmlns:rdf="http://www.w3.org/1999/02/22-rdf-syntax-ns#"
   xmlns:svg="http://www.w3.org/2000/svg"
   xmlns="http://www.w3.org/2000/svg"
   xmlns:sodipodi="http://sodipodi.sourceforge.net/DTD/sodipodi-0.dtd"
   xmlns:inkscape="http://www.inkscape.org/namespaces/inkscape"
   width="140"
   height="140"
   id="svg2"
   version="1.1"
   inkscape:version="0.48.5 r10040"
   sodipodi:docname="icon.svg"
   inkscape:export-filename="/Users/maxradin/Development/hangout-soundboard/icon/icon_16x16.png"
   inkscape:export-xdpi="10.285714"
   inkscape:export-ydpi="10.285714">
  <defs
     id="defs4" />
  <sodipodi:namedview
     id="base"
     pagecolor="#ffffff"
     bordercolor="#666666"
     borderopacity="1.0"
     inkscape:pageopacity="0.0"
     inkscape:pageshadow="2"
     inkscape:zoom="1.979899"
     inkscape:cx="72.548959"
     inkscape:cy="96.330653"
     inkscape:document-units="px"
     inkscape:current-layer="layer1"
     showgrid="false"
     showborder="true"
     inkscape:window-width="1066"
     inkscape:window-height="690"
     inkscape:window-x="254"
     inkscape:window-y="76"
     inkscape:window-maximized="0" />
  <metadata
     id="metadata7">
    <rdf:RDF>
      <cc:Work
         rdf:about="">
        <dc:format>image/svg+xml</dc:format>
        <dc:type
           rdf:resource="http://purl.org/dc/dcmitype/StillImage" />
        <dc:title></dc:title>
      </cc:Work>
    </rdf:RDF>
  </metadata>
  <g
     inkscape:label="Layer 1"
     inkscape:groupmode="layer"
     id="layer1"
     transform="translate(0,-912.36218)">
    <rect
       style="fill:#37c871;fill-opacity:1;stroke:none"
       id="rect2993"
       width="140"
       height="140"
       x="0.50507629"
       y="0.59894866"
       transform="translate(0,912.36218)" />
    <path
       sodipodi:type="arc"
       style="fill:#ffffff;fill-opacity:1;stroke:none"
       id="path2995"
       sodipodi:cx="31.567266"
       sodipodi:cy="101.86674"
       sodipodi:rx="11.869292"
       sodipodi:ry="11.869292"
       d="m 43.436559,101.86674 a 11.869292,11.869292 0 1 1 -23.738585,0 11.869292,11.869292 0 1 1 23.738585,0 z"
       transform="matrix(0.84251022,0,0,0.84251022,-1.5957446,946.53841)" />
    <path
       transform="matrix(0.84251022,0,0,0.84251022,28.404255,946.53841)"
       d="m 43.436559,101.86674 a 11.869292,11.869292 0 1 1 -23.738585,0 11.869292,11.869292 0 1 1 23.738585,0 z"
       sodipodi:ry="11.869292"
       sodipodi:rx="11.869292"
       sodipodi:cy="101.86674"
       sodipodi:cx="31.567266"
       id="path2997"
       style="fill:#ffffff;fill-opacity:1;stroke:none"
       sodipodi:type="arc" />
    <path
       sodipodi:type="arc"
       style="fill:#ffffff;fill-opacity:1;stroke:none"
       id="path2999"
       sodipodi:cx="31.567266"
       sodipodi:cy="101.86674"
       sodipodi:rx="11.869292"
       sodipodi:ry="11.869292"
       d="m 43.436559,101.86674 a 11.869292,11.869292 0 1 1 -23.738585,0 11.869292,11.869292 0 1 1 23.738585,0 z"
       transform="matrix(0.84251022,0,0,0.84251022,58.404255,946.53841)" />
    <path
       transform="matrix(0.84251022,0,0,0.84251022,88.404255,946.53841)"
       d="m 43.436559,101.86674 a 11.869292,11.869292 0 1 1 -23.738585,0 11.869292,11.869292 0 1 1 23.738585,0 z"
       sodipodi:ry="11.869292"
       sodipodi:rx="11.869292"
       sodipodi:cy="101.86674"
       sodipodi:cx="31.567266"
       id="path3001"
       style="fill:#ffffff;fill-opacity:1;stroke:none"
       sodipodi:type="arc" />
    <rect
       style="fill:#000000;fill-opacity:1;stroke:none"
       id="rect3003"
       width="5"
       height="90"
       x="22.5"
       y="922.36218" />
    <rect
       style="fill:#ffffff;fill-opacity:1;stroke:none"
       id="rect3011"
       width="20"
       height="8"
       x="15"
       y="997.89508" />
    <rect
       y="922.36218"
       x="52.5"
       height="90"
       width="5"
       id="rect3041"
       style="fill:#000000;fill-opacity:1;stroke:none" />
    <rect
       style="fill:#000000;fill-opacity:1;stroke:none"
       id="rect3043"
       width="5"
       height="90"
       x="82.5"
       y="922.36218" />
    <rect
       y="922.36218"
       x="112.5"
       height="90"
       width="5"
       id="rect3045"
       style="fill:#000000;fill-opacity:1;stroke:none" />
    <rect
       y="926.36218"
       x="45"
       height="8"
       width="20"
       id="rect3013"
       style="fill:#ffffff;fill-opacity:1;stroke:none" />
    <rect
       style="fill:#ffffff;fill-opacity:1;stroke:none"
       id="rect3047"
       width="20"
       height="8"
       x="75"
       y="974.36218" />
    <rect
       y="974.36218"
       x="105"
       height="8"
       width="20"
       id="rect3049"
       style="fill:#ffffff;fill-opacity:1;stroke:none" />
  </g>
</svg>
